<?xml version="1.0" encoding="UTF-8"?>
<svg width="35px" height="35px" viewBox="0 0 35 35" version="1.1" xmlns="http://www.w3.org/2000/svg" xmlns:xlink="http://www.w3.org/1999/xlink">
    <title>􀐫</title>
    <g id="Page-1" stroke="none" stroke-width="1" fill="none" fill-rule="evenodd">
        <g id="Artboard" transform="translate(-108.000000, -56.000000)" fill="#5EDEE8" fill-rule="nonzero">
            <path d="M125.601367,90.3472656 C134.792969,90.3472656 142.355078,82.7851562 142.355078,73.5935547 C142.355078,64.3861328 134.792969,56.8240234 125.585547,56.8240234 C116.378125,56.8240234 108.831836,64.3861328 108.831836,73.5935547 C108.831836,82.7851562 116.393945,90.3472656 125.601367,90.3472656 Z M125.601367,86.0441406 C118.687891,86.0441406 113.150781,80.4912109 113.150781,73.5935547 C113.150781,66.6800781 118.687891,61.1271484 125.585547,61.1271484 C132.483203,61.1271484 138.051987,66.6800781 138.051987,73.5935547 C138.067773,80.4912109 132.499023,86.0441406 125.601367,86.0441406 Z M125.585547,76.0773437 C126.471484,76.0773437 127.151758,75.38125 127.151758,74.4953125 L127.151758,64.75 C127.151758,63.8640625 126.471484,63.1837891 125.585547,63.1837891 C124.71543,63.1837891 124.019336,63.8640625 124.019336,64.75 L124.019336,72.9291016 L118.16582,72.9291016 C117.279883,72.9291016 116.599609,73.6251953 116.599609,74.4953125 C116.599609,75.38125 117.279883,76.0773437 118.16582,76.0773437 L125.585547,76.0773437 Z" id="􀐫"></path>
        </g>
    </g>
</svg>