<?xml version="1.0" encoding="UTF-8"?>
<svg width="29px" height="36px" viewBox="0 0 29 36" version="1.1" xmlns="http://www.w3.org/2000/svg" xmlns:xlink="http://www.w3.org/1999/xlink">
    <title>􀙭</title>
    <g id="Page-1" stroke="none" stroke-width="1" fill="none" fill-rule="evenodd">
        <g id="Artboard" transform="translate(-107.000000, -54.000000)" fill="#5EDEE8" fill-rule="nonzero">
            <path d="M121.025977,89.9359375 C129.853711,89.9359375 135.754688,84.0033203 135.754688,75.0964844 C135.754688,60.4943359 123.177539,54.3560547 114.60293,54.3560547 C112.704492,54.3560547 111.423047,55.13125 111.423047,56.5708984 C111.423047,57.1246094 111.676172,57.7099609 112.0875,58.2003906 C114.191602,60.7474609 115.836914,63.0730469 115.836914,65.9523437 L115.836914,66.2371094 L115.836914,66.2371094 C114.761133,64.0697266 113.384766,63.2154297 112.10332,63.2154297 C111.169922,63.2154297 110.537109,63.8324219 110.537109,64.8765625 C110.537109,65.5251953 110.663672,66.2212891 110.663672,67.1546875 C110.663672,70.9515625 107.831836,72.4070312 107.831836,78.4820313 C107.831836,85.3480469 113.1,89.9359375 121.025977,89.9359375 Z M121.437305,84.1773438 C118.510547,84.1773438 116.596289,82.4529297 116.596289,79.8583984 C116.596289,77.2005859 118.431445,76.4253906 118.66875,74.3054687 C118.68457,74.0207031 118.969336,73.8466797 119.254102,74.0998047 C119.886914,74.7167969 120.329883,75.5078125 120.662109,76.5203125 C121.421484,75.1123047 121.548047,73.0873047 121.231641,70.9041016 C121.152539,70.5402344 121.453125,70.3662109 121.737891,70.4927734 C125.060156,71.9324219 126.942773,75.1914062 126.942773,78.5136719 C126.942773,81.709375 124.933594,84.1773438 121.437305,84.1773438 Z" id="􀙭"></path>
        </g>
    </g>
</svg>